<mxfile host="app.diagrams.net" modified="2024-03-06T04:12:39.204Z" agent="Mozilla/5.0 (Windows NT 10.0; Win64; x64; rv:124.0) Gecko/20100101 Firefox/124.0" version="24.0.1" etag="D-BT1vaHlZ6lG5AtSsNo" type="github">
  <diagram name="PÃ¡gina-1" id="Vfl9InXMbDk4mEZziJTI">
    <mxGraphModel>
      <root>
        <mxCell id="0" />
        <mxCell id="1" parent="0" />
      </root>
    </mxGraphModel>
  </diagram>
</mxfile>
